<?xml version="1.0" encoding="utf-8"?>
<!-- Generator: Adobe Illustrator 14.0.0, SVG Export Plug-In . SVG Version: 6.00 Build 43363)  -->
<!DOCTYPE svg PUBLIC "-//W3C//DTD SVG 1.1//EN" "http://www.w3.org/Graphics/SVG/1.1/DTD/svg11.dtd">
<svg version="1.1" id="Layer_1" xmlns="http://www.w3.org/2000/svg" xmlns:xlink="http://www.w3.org/1999/xlink" x="0px" y="0px"
	 width="841.89px" height="423.14px" viewBox="0 0 841.89 423.14" enable-background="new 0 0 841.89 423.14" xml:space="preserve">
<g>
	<g>
		<path fill-rule="evenodd" clip-rule="evenodd" fill="#80C342" d="M65.743,36.408c241.916,14.515,488.67-14.516,711.233,0
			c-6.805,49.138-7.23,98.279-5.762,147.416l-123.945,74.859l-322.888,31.861L62.674,242.791
			C66.041,173.997,75.269,105.201,65.743,36.408L65.743,36.408z"/>
		<path fill-rule="evenodd" clip-rule="evenodd" fill="#FFDD00" d="M771.781,183.258c1.664,55.691,5.762,111.385,5.762,167.074
			c-241.916-14.516-459.641,19.354-711.232,0c-5.443-39.311-4.762-78.623-2.551-117.936l92.501-45.114l68.469-33.851l40.627,2.215
			l31.197,1.896l11.801,25.711l-3.11,33.537l-2.629,44.164l16.821,9.227l31.864-16.645l41.229-36.338l53.978-47.262l45.67-16.328
			l15.391,1.631l20.717,24.248l3.803,19.064l17.248,30.461l26.604,7.025l38.365-4.652l97.383-36.024L771.781,183.258
			L771.781,183.258z"/>
		<path fill-rule="evenodd" clip-rule="evenodd" fill="#00AEEF" d="M372.873,233.426c2.706-30.479,2.989-57.865-6.237-74.384
			c-4.088-9.298-8.013-12.114-24.814-6.771c-10.954,3.131-18.459,0.785-22.521-7.033c-0.266-13.52,9.242-27.433,10.098-40.355
			c0.176-8.628-3.456-15.46-15.461-18.338c-15.72-1.797-26.727-6.764-32.048-15.559c-5.23-8.92-8.173-27.873-12.791-42.979
			l10.213-2.958c1.445,5.34,2.356,11.396,2.901,18.21c2.067,19.64,7.719,35.372,26.177,37.147
			c20.096,2.708,26.235,12.37,25.718,24.7c-4.905,13.336-9.902,28.859-10.169,38.397c0.589,5.771,5.441,8.027,19.668,2.554
			c13.514-4.604,21.415-0.914,26.763,6.547c11.214,13.313,15.22,36.608,15.59,71.441L372.873,233.426L372.873,233.426z"/>
		<path fill-rule="evenodd" clip-rule="evenodd" fill="#00AEEF" d="M403.401,204.617c2.707-30.479,2.989-52.922-6.236-69.44
			c-4.089-9.298-8.014-12.114-24.815-6.771c-10.954,3.13-18.46,0.785-22.522-7.034c-0.266-13.519,9.242-27.433,10.1-40.355
			c0.175-8.628-3.457-15.46-15.462-18.339c-15.72-1.796-26.727-6.763-32.047-15.558c-3.304-5.634-5.695-15.27-8.172-25.41
			l8.495-2.316c2.067,19.64,7.72,35.371,26.178,37.147c20.096,2.708,26.234,12.37,25.717,24.7
			c-4.905,13.336-9.903,28.859-10.17,38.397c0.59,5.771,5.442,8.027,19.67,2.552c13.513-4.603,21.413-0.912,26.761,6.548
			c10.841,12.868,14.945,35.066,15.542,67.996L403.401,204.617L403.401,204.617z"/>
		<path fill-rule="evenodd" clip-rule="evenodd" fill="#00AEEF" d="M440.89,176.576c2.705-30.479,2.986-52.921-6.236-69.441
			c-4.09-9.298-8.014-12.114-24.816-6.771c-10.954,3.13-18.46,0.786-22.521-7.033c-0.266-13.519,9.242-27.433,10.099-40.355
			c0.175-8.628-3.456-15.459-15.461-18.338c-9.825-1.123-17.81-3.484-23.715-7.245l2.318-6.249c3.807,4.062,8.928,6.69,15.85,7.355
			c20.096,2.708,26.235,12.37,25.717,24.701c-4.905,13.335-9.903,28.858-10.169,38.397c0.59,5.77,5.441,8.026,19.669,2.551
			c13.512-4.603,21.415-0.912,26.762,6.548c10.467,12.425,14.652,33.548,15.467,64.63L440.89,176.576L440.89,176.576z"/>
		<path fill-rule="evenodd" clip-rule="evenodd" fill="#00AEEF" d="M22.475,242.313l13.578,32.852
			c97.785-63.66,170.964-103.48,227.406-109.324c31.659-3.128,42.246,0.876,31.174,59.066c-6.072,37.289,4.854,62.627,31.175,51.979
			c45.52-22.945,86.019-75.303,127.052-103.062c26.834-17.392,51.396-18.384,65.195,10.918c15.408,41.45,31.861,62.45,62.348,63.792
			c51.977-2.166,193.781-75.191,217.518-42.973l21.494-25.32c-30.377-28.307-77.924-18.416-149.26,16.538
			c-64.428,30.048-112.715,41.003-130.141-7.312c-16.252-52.92-49.855-52.892-89.629-28.8
			c-41.404,38.575-89.862,81.427-120.681,99.679c-18.922,10.479-28.042-0.961-15.587-51.979
			c9.896-47.361-3.936-59.614-31.175-65.084C232.465,134.857,148.217,170.882,22.475,242.313L22.475,242.313z"/>
	</g>
	<path fill-rule="evenodd" clip-rule="evenodd" d="M71.133,385.531v10.459h-3.892v-25.77h4.401c2.376,0,4.078,0.17,5.096,0.51
		c1.862,0.619,3.234,1.807,4.118,3.57c0.566,1.121,0.851,2.307,0.851,3.57c0,2.209-0.748,4.033-2.249,5.469
		c-1.52,1.463-3.692,2.191-6.514,2.191H71.133L71.133,385.531z M71.133,381.922h1.456c1.861,0,3.209-0.348,4.04-1.037
		c0.882-0.74,1.321-1.764,1.321-3.072c0-1.359-0.484-2.385-1.457-3.08c-0.857-0.611-2.216-0.92-4.078-0.92h-1.282V381.922
		L71.133,381.922z M119.629,369.732c3.898,0,7.184,1.463,9.851,4.383c2.365,2.563,3.55,5.572,3.55,9.02
		c0,2.365-0.599,4.58-1.791,6.643c-1.185,2.035-2.802,3.654-4.852,4.852c-2.113,1.23-4.433,1.85-6.952,1.85
		c-2.223,0-4.355-0.555-6.398-1.662c-2.456-1.334-4.285-3.158-5.49-5.471c-0.973-1.875-1.456-3.988-1.456-6.348
		c0-3.672,1.373-6.822,4.117-9.451C112.774,371.066,115.918,369.797,119.629,369.732L119.629,369.732z M119.591,373.393
		c-3.021,0-5.465,1.135-7.326,3.395c-1.5,1.832-2.248,3.912-2.248,6.252c0,2.859,0.953,5.203,2.867,7.041
		c1.907,1.822,4.098,2.738,6.59,2.738c1.792,0,3.447-0.451,4.968-1.359c1.56-0.934,2.745-2.17,3.55-3.717
		c0.742-1.412,1.115-2.951,1.115-4.627c0-2.705-0.916-5.014-2.739-6.926C124.616,374.373,122.361,373.443,119.591,373.393
		L119.591,373.393z M159.84,370.221l6.72,17.217l7.022-18.457l6.7,18.477l7.133-17.236h4.208l-11.514,27.43l-6.623-18.271
		l-6.907,18.271l-10.947-27.43H159.84L159.84,370.221z M220.417,370.221v25.77h-3.892v-25.77H220.417L220.417,370.221z
		 M263.397,389.721h-11.024l-2.867,6.27h-4.188l12.757-27.41l12.287,27.41h-4.246L263.397,389.721L263.397,389.721z
		 M261.832,386.061l-3.833-8.758l-4.001,8.758H261.832L261.832,386.061z M300.883,373.881v22.109h-3.892v-22.109h-5.927v-3.66
		h15.721v3.66H300.883L300.883,373.881z M382.865,369.732c3.898,0,7.184,1.463,9.852,4.383c2.365,2.563,3.55,5.572,3.55,9.02
		c0,2.365-0.599,4.58-1.792,6.643c-1.186,2.035-2.803,3.654-4.851,4.852c-2.114,1.23-4.434,1.85-6.954,1.85
		c-2.223,0-4.354-0.555-6.397-1.662c-2.455-1.334-4.285-3.158-5.489-5.471c-0.973-1.875-1.457-3.988-1.457-6.348
		c0-3.672,1.373-6.822,4.118-9.451C376.01,371.066,379.155,369.797,382.865,369.732L382.865,369.732z M382.827,373.393
		c-3.022,0-5.464,1.135-7.327,3.395c-1.501,1.832-2.248,3.912-2.248,6.252c0,2.859,0.953,5.203,2.867,7.041
		c1.907,1.822,4.098,2.738,6.591,2.738c1.792,0,3.447-0.451,4.968-1.359c1.558-0.934,2.745-2.17,3.549-3.717
		c0.742-1.412,1.116-2.951,1.116-4.627c0-2.705-0.916-5.014-2.74-6.926C387.852,374.373,385.596,373.443,382.827,373.393
		L382.827,373.393z M437.398,374.055l-3.15,1.871c-0.463-0.768-0.875-1.309-1.23-1.625c-0.65-0.605-1.52-0.908-2.604-0.908
		c-1.135,0-2.049,0.322-2.758,0.961c-0.676,0.617-1.016,1.363-1.016,2.248c0,0.857,0.404,1.564,1.223,2.133
		c0.379,0.275,0.74,0.496,1.088,0.65c0.35,0.162,1.367,0.586,3.068,1.275c2.152,0.883,3.691,1.926,4.605,3.133
		c0.961,1.262,1.438,2.744,1.438,4.457c0,2.475-0.877,4.523-2.623,6.135c-1.514,1.396-3.4,2.094-5.662,2.094
		c-2.906,0-5.154-1.146-6.74-3.434c-0.748-1.084-1.244-2.475-1.495-4.176l3.931-0.863c0.162,1.309,0.406,2.248,0.734,2.828
		c0.342,0.605,0.846,1.09,1.521,1.441c0.67,0.361,1.404,0.543,2.197,0.543c1.314,0,2.371-0.463,3.176-1.398
		c0.701-0.805,1.057-1.771,1.057-2.904c0-1.451-0.598-2.572-1.791-3.377c-0.432-0.289-0.824-0.521-1.191-0.689
		c-0.369-0.174-1.432-0.625-3.191-1.373c-3.523-1.48-5.289-3.658-5.289-6.527c0-2.307,0.98-4.104,2.945-5.398
		c1.438-0.947,3.035-1.418,4.793-1.418c1.547,0,2.881,0.348,3.994,1.037C435.544,371.459,436.529,372.555,437.398,374.055
		L437.398,374.055z M471.882,373.881v22.109h-3.893v-22.109h-5.93v-3.66h15.723v3.66H471.882L471.882,373.881z M511.671,385.004
		l7.984,10.986h-4.754l-7.365-10.557h-0.697v10.557h-3.891v-25.77h4.555c1.656,0,3.004,0.119,4.041,0.344
		c1.029,0.227,1.945,0.605,2.75,1.146c0.961,0.645,1.721,1.533,2.287,2.662c0.529,1.068,0.795,2.209,0.795,3.42
		c0,1.799-0.523,3.355-1.568,4.678C514.767,383.793,513.386,384.637,511.671,385.004L511.671,385.004z M506.839,382.039h1.246
		c1.713,0,3-0.309,3.871-0.928c1.082-0.754,1.623-1.85,1.623-3.287c0-1.334-0.502-2.35-1.508-3.053
		c-0.857-0.594-2.139-0.891-3.852-0.891h-1.381V382.039L506.839,382.039z M556.843,369.732c3.9,0,7.186,1.463,9.852,4.383
		c2.367,2.563,3.553,5.572,3.553,9.02c0,2.365-0.6,4.58-1.793,6.643c-1.186,2.035-2.801,3.654-4.85,4.852
		c-2.115,1.23-4.434,1.85-6.953,1.85c-2.223,0-4.355-0.555-6.398-1.662c-2.455-1.334-4.285-3.158-5.49-5.471
		c-0.973-1.875-1.457-3.988-1.457-6.348c0-3.672,1.373-6.822,4.119-9.451C549.988,371.066,553.132,369.797,556.843,369.732
		L556.843,369.732z M556.806,373.393c-3.023,0-5.465,1.135-7.326,3.395c-1.502,1.832-2.248,3.912-2.248,6.252
		c0,2.859,0.953,5.203,2.867,7.041c1.906,1.822,4.098,2.738,6.59,2.738c1.791,0,3.447-0.451,4.969-1.359
		c1.561-0.934,2.746-2.17,3.549-3.717c0.742-1.412,1.115-2.951,1.115-4.627c0-2.705-0.914-5.014-2.738-6.926
		C561.832,374.373,559.576,373.443,556.806,373.393L556.806,373.393z M600.695,380.043l4.969-3.307v3.867l-4.969,3.285v8.441h7.57
		v3.66h-11.461v-10.002l-2.449,1.617v-3.865l2.449-1.623v-11.896h3.891V380.043L600.695,380.043z M647.871,373.881h-10.34v6.174
		h10.023v3.66h-10.023v8.615h10.34v3.66c-1.096,0.92-1.822,1.609-2.184,2.086c-0.369,0.469-0.549,0.961-0.549,1.48
		c0,0.361,0.123,0.658,0.361,0.879c0.238,0.217,0.555,0.328,0.961,0.328c0.637,0,1.52-0.303,2.635-0.902l-0.561,3.111
		c-0.779,0.516-1.734,0.773-2.848,0.773c-1.225,0-2.186-0.33-2.887-0.98c-0.729-0.668-1.096-1.463-1.096-2.377
		c0-1.412,1.012-2.881,3.035-4.398h-11.102v-25.77h14.232V373.881L647.871,373.881z M693.693,371.619v4.607
		c-1.146-0.973-2.172-1.643-3.08-2.023c-1.279-0.539-2.576-0.811-3.885-0.811c-1.771,0-3.396,0.459-4.871,1.379
		c-1.559,0.953-2.75,2.279-3.568,3.98c-0.664,1.373-1,2.855-1,4.441c0,2.943,1.045,5.348,3.131,7.209
		c1.818,1.609,3.92,2.416,6.309,2.416c1.27,0,2.436-0.225,3.492-0.67c1.059-0.445,2.217-1.199,3.473-2.256v4.678
		c-2.229,1.27-4.561,1.908-7.004,1.908c-2.313,0-4.459-0.543-6.436-1.623c-2.379-1.309-4.195-3.191-5.451-5.645
		c-0.961-1.875-1.438-3.867-1.438-5.98c0-2.203,0.523-4.297,1.568-6.289c1.236-2.313,2.949-4.115,5.152-5.398
		c2.088-1.203,4.381-1.811,6.889-1.811C689.298,369.732,691.542,370.365,693.693,371.619L693.693,371.619z M724.142,380.512
		l10.025-10.291h5.188l-11.623,11.67l11.701,14.1h-5.215l-9.264-11.459l-0.813,0.795v10.664h-3.891v-25.77h3.891V380.512
		L724.142,380.512z M768.47,370.221v25.77h-3.891v-25.77H768.47L768.47,370.221z"/>
</g>
</svg>
